<svg width="74" height="66" viewBox="0 0 74 66" fill="none" xmlns="http://www.w3.org/2000/svg">
<path d="M16.1911 4.64916C24.6139 11.0541 33.6736 24.0407 36.9999 31.0101C40.3264 24.0412 49.3856 11.054 57.8087 4.64916C63.8861 0.0275959 73.7332 -3.54831 73.7332 7.8304C73.7332 10.1029 72.4469 26.9204 71.6925 29.6507C69.0701 39.143 59.5142 41.5641 51.0141 40.0987C65.8721 42.6601 69.6519 51.1445 61.4891 59.6288C45.9864 75.7423 39.2072 55.5859 37.4693 50.4211C37.1509 49.4743 37.0019 49.0313 36.9997 49.408C36.9975 49.0313 36.8485 49.4743 36.53 50.4211C34.7929 55.5859 28.0138 75.7428 12.5102 59.6288C4.34731 51.1445 8.12692 42.6596 22.9852 40.0987C14.4848 41.5641 4.92884 39.143 2.30684 29.6507C1.55239 26.9202 0.266113 10.1026 0.266113 7.8304C0.266113 -3.54831 10.1134 0.0275959 16.1906 4.64916H16.1911Z" fill="white"/>
</svg>
