<svg width="128" height="128" viewBox="0 0 128 128" fill="none" xmlns="http://www.w3.org/2000/svg">
<rect width="128" height="128" rx="32" fill="url(#paint0_linear_2071_6)"/>
<path opacity="0.6" fill-rule="evenodd" clip-rule="evenodd" d="M32.5697 34.0479H95.9982C96.9328 34.0479 97.8291 34.4191 98.4899 35.08C99.1508 35.7408 99.522 36.6371 99.522 37.5717V41.0955H29.0459V37.5717C29.0459 36.6371 29.4172 35.7408 30.078 35.08C30.7388 34.4191 31.6351 34.0479 32.5697 34.0479Z" fill="#473B1F"/>
<path opacity="0.3" fill-rule="evenodd" clip-rule="evenodd" d="M39.6195 27H88.9528C89.8874 27 90.7837 27.3713 91.4445 28.0321C92.1054 28.6929 92.4766 29.5892 92.4766 30.5238V34.0476H36.0957V30.5238C36.0957 29.5892 36.467 28.6929 37.1278 28.0321C37.7886 27.3713 38.6849 27 39.6195 27Z" fill="#473B1F"/>
<path fill-rule="evenodd" clip-rule="evenodd" d="M25.5238 41.0952H103.048C103.982 41.0952 104.878 41.4665 105.539 42.1273C106.2 42.7882 106.571 43.6845 106.571 44.619V97.4761C106.571 98.4107 106.2 99.307 105.539 99.9678C104.878 100.629 103.982 101 103.048 101H25.5238C24.5892 101 23.6929 100.629 23.0321 99.9678C22.3713 99.307 22 98.4107 22 97.4761V44.619C22 43.6845 22.3713 42.7882 23.0321 42.1273C23.6929 41.4665 24.5892 41.0952 25.5238 41.0952ZM25.5238 48.1428V58.7143H36.0952V48.1428H25.5238ZM25.5238 65.7619V76.3333H36.0952V65.7619H25.5238ZM25.5238 83.3809V93.9523H36.0952V83.3809H25.5238ZM92.4761 48.1428V58.7143H103.048V48.1428H92.4761ZM92.4761 65.7619V76.3333H103.048V65.7619H92.4761ZM92.4761 83.3809V93.9523H103.048V83.3809H92.4761Z" fill="#473B1F"/>
<defs>
<linearGradient id="paint0_linear_2071_6" x1="64" y1="0" x2="64" y2="128" gradientUnits="userSpaceOnUse">
<stop stop-color="#FFE629"/>
<stop offset="1" stop-color="#FFDC00"/>
</linearGradient>
</defs>
</svg>
